<?xml version="1.0" standalone="no"?>
<!DOCTYPE svg PUBLIC "-//W3C//DTD SVG 20010904//EN"
 "http://www.w3.org/TR/2001/REC-SVG-20010904/DTD/svg10.dtd">
<svg version="1.0" xmlns="http://www.w3.org/2000/svg"
 width="311.000000pt" height="104.000000pt" viewBox="0 0 311.000000 104.000000"
 preserveAspectRatio="xMidYMid meet">

<g transform="translate(0.000000,104.000000) scale(0.100000,-0.100000)"
fill="#fff" stroke="none">
<path d="M483 737 c-57 -34 -103 -65 -103 -69 0 -5 94 -8 210 -8 116 0 210 3
210 8 0 6 -203 133 -212 132 -1 -1 -49 -29 -105 -63z m191 -4 l81 -48 -83 -3
c-45 -2 -119 -2 -165 0 l-82 3 80 47 c44 26 82 48 84 48 2 0 41 -21 85 -47z"/>
<path d="M1060 550 c0 -107 3 -130 15 -130 11 0 15 20 17 97 l3 97 64 -97 c35
-53 70 -97 77 -97 11 0 14 27 14 130 0 107 -3 130 -15 130 -11 0 -15 -20 -17
-97 l-3 -98 -65 97 c-36 54 -71 98 -77 98 -10 0 -13 -33 -13 -130z"/>
<path d="M1320 550 c0 -109 2 -130 15 -130 11 0 15 12 15 49 l0 49 55 4 c69 6
95 27 95 79 0 56 -34 79 -116 79 l-64 0 0 -130z m138 88 c7 -7 12 -24 12 -38
0 -38 -18 -50 -72 -50 l-48 0 0 50 0 50 48 0 c26 0 53 -5 60 -12z"/>
<path d="M1532 668 c3 -7 21 -14 41 -16 l37 -3 0 -115 c0 -95 3 -114 15 -114
12 0 15 19 15 115 l0 115 40 0 c29 0 40 4 40 15 0 12 -17 15 -96 15 -72 0 -95
-3 -92 -12z"/>
<path d="M1795 555 c25 -70 45 -129 45 -132 0 -2 10 -3 21 -1 17 2 29 26 65
128 24 68 44 126 44 127 0 2 -6 3 -14 3 -14 0 -33 -42 -70 -157 -10 -29 -21
-53 -24 -53 -4 0 -23 46 -43 103 -24 69 -41 103 -52 105 -14 3 -9 -19 28 -123z"/>
<path d="M2020 551 l0 -131 59 0 c76 0 109 13 122 47 11 29 -4 83 -24 83 -5 0
-3 8 6 18 21 23 22 62 3 87 -11 16 -30 20 -90 23 l-76 4 0 -131z m144 77 c19
-31 -4 -53 -63 -56 l-51 -3 0 41 0 41 51 -3 c36 -2 55 -8 63 -20z m-5 -97 c7
-5 14 -21 14 -36 0 -35 -17 -45 -75 -45 l-48 0 0 45 0 45 48 0 c26 0 53 -4 61
-9z"/>
<path d="M2694 667 c-2 -7 -3 -64 -2 -127 2 -80 7 -115 16 -118 8 -2 12 10 12
44 l0 47 50 -47 c72 -68 99 -60 30 9 l-54 55 40 34 c21 20 42 35 47 36 4 0 7
5 7 10 0 20 -31 9 -69 -25 -21 -19 -41 -35 -45 -35 -3 0 -6 29 -6 65 0 60 -13
86 -26 52z"/>
<path d="M398 519 c-2 -67 0 -123 5 -126 4 -2 7 52 7 121 0 69 -2 126 -4 126
-3 0 -6 -54 -8 -121z"/>
<path d="M464 515 c0 -72 1 -99 3 -62 2 37 2 96 0 130 -2 34 -3 4 -3 -68z"/>
<path d="M707 519 c1 -67 5 -124 8 -127 3 -3 5 52 5 121 0 70 -3 127 -7 127
-5 0 -7 -55 -6 -121z"/>
<path d="M774 515 c0 -72 1 -99 3 -62 2 37 2 96 0 130 -2 34 -3 4 -3 -68z"/>
<path d="M2291 607 c-14 -6 -26 -18 -29 -24 -4 -15 24 -17 33 -3 9 14 58 13
73 -2 22 -22 12 -35 -30 -42 -57 -9 -88 -31 -88 -61 0 -27 33 -55 65 -55 11 0
31 7 43 16 20 14 22 14 22 0 0 -9 7 -16 15 -16 12 0 15 15 15 75 0 67 -3 79
-25 100 -27 27 -57 31 -94 12z m89 -105 c0 -49 -91 -72 -98 -25 -3 18 4 24 30
32 52 15 68 13 68 -7z"/>
<path d="M2470 520 c0 -82 3 -100 15 -100 12 0 15 14 15 66 0 81 11 104 50
104 42 0 60 -32 60 -107 0 -49 3 -63 15 -63 12 0 15 13 15 60 0 110 -42 161
-108 130 -18 -8 -28 -8 -30 -1 -2 6 -10 11 -18 11 -11 0 -14 -20 -14 -100z"/>
<path d="M535 520 l0 -55 55 0 55 0 0 55 0 55 -55 0 -55 0 0 -55z m79 24 c19
-18 19 -20 6 -45 -6 -10 -19 -19 -28 -19 -39 0 -57 50 -24 69 23 14 28 14 46
-5z"/>
<path d="M380 370 c0 -6 77 -10 210 -10 133 0 210 4 210 10 0 6 -77 10 -210
10 -133 0 -210 -4 -210 -10z"/>
<path d="M350 340 c0 -6 87 -10 240 -10 153 0 240 4 240 10 0 6 -87 10 -240
10 -153 0 -240 -4 -240 -10z"/>
<path d="M315 310 c-4 -7 88 -10 269 -10 177 0 276 4 276 10 0 14 -537 14
-545 0z"/>
</g>
</svg>
